<svg width="852" height="383" viewBox="0 0 852 383" fill="none" xmlns="http://www.w3.org/2000/svg">
    <g clip-path="url(#clip0_1_2)">
        <path d="M95.7 354.4C95.7 354.4 35.6 353.5 19.7 285.7C15.8 282.1 11.2 278.8 9.70002 273.5C9.10002 271.6 8.70002 269.6 8.40002 267.6C7.70002 263.1 7.40003 258.4 6.80003 254.1C5.90003 247.4 5.10002 240.7 4.20002 234C2.60002 220.7 0.600022 207 0.500022 193.5V193.3C0.400022 179.7 2.50002 166.1 4.20002 152.6C5.00002 145.9 5.90003 139.2 6.80003 132.5C7.30003 128.7 7.60002 124.6 8.20002 120.6C8.60002 118 9.00002 115.5 9.70002 113.1C11.3 107.7 15.8 104.5 19.7 100.8C19.7 100.7 19.8 100.6 19.8 100.5C35.8 33 95.7 32.1 95.7 32.1C95.7 32.1 152.8 28.9 170.3 31C177.4 31.9 191.4 32.9 205.7 33.8C226.8 35.2 248.4 36.3 248.4 36.3L465.8 34.6H466.6L584.3 33.7C584.3 33.7 654.7 31 679.3 31.8C703.9 32.6 735.5 36.6 774.6 42.2C774.9 42.2 775.1 42.3 775.4 42.3C813.7 47.9 817.2 54.6 825.7 68.4C834.3 77.5 840.2 105.9 843.1 119.8C844.6 126.7 846 133.6 847.2 140.6C853.4 177.3 853 213.5 846.4 250.3C845.4 255.7 844.3 261.1 843.2 266.5C840.3 280.4 834.4 308.8 825.8 317.9C817.3 331.7 813.8 338.4 775.5 344C775.2 344 775 344.1 774.7 344.1C735.6 349.7 704 353.7 679.4 354.5C654.8 355.3 584.4 352.6 584.4 352.6L465.2 351.7H464.4L248.5 350C248.5 350 219.1 351.6 195.3 353.2C184.9 353.9 175.7 354.7 170.3 355.3C152.8 357.6 95.7 354.4 95.7 354.4Z" fill="#1E1E1E"/>
        <path d="M662.2 52.1C662.2 52.1 809.3 44.3 827.5 81.2C817.3 78.5 743.1 59.1 739.8 81.7C685.8 93.8 682.5 89.4 678.7 90.5C674.8 91.6 611 86.1 611 86.1L594.4 58L662.2 52.1Z" fill="url(#paint0_linear_1_2)"/>
        <path d="M674.2 288.1C674.2 288.1 394.9 295.5 365.2 304.6C353 245.7 341.9 213.2 341.9 213.2L697.1 236.3L674.2 288.1Z" fill="url(#paint1_linear_1_2)"/>
        <path d="M662.2 334.1C662.2 334.1 809.3 341.9 827.5 305C817.3 307.7 743.1 327.1 739.8 304.5C685.8 292.4 682.5 296.8 678.7 295.7C674.8 294.6 611 300.1 611 300.1L594.5 328.2L662.2 334.1Z" fill="url(#paint2_linear_1_2)"/>
        <path opacity="0.3" d="M276.2 59.4C276.2 59.4 164.7 34.4 70.9 49.6C43.1 64.5 25.1 94.6 26.6 111.1C48.3 126.5 194.4 114.8 198 114C201.7 113.4 276.2 59.4 276.2 59.4Z" fill="url(#paint3_linear_1_2)"/>
        <path opacity="0.3" d="M346 134.8C346 134.8 336.9 106.2 347.6 65.7C349.9 65.6 357.9 65.8 369.9 66.3C430.1 77.5 607.3 80.2 644.6 80.7C666.6 81.9 680.5 82.7 680.5 82.7L732.5 133.1C732.5 133.1 732.5 133.1 658.2 144.7C517.8 110 346 134.8 346 134.8Z" fill="url(#paint4_linear_1_2)"/>
        <path opacity="0.3" d="M276.2 329.4C276.2 329.4 164.7 354.4 70.9 339.2C43.1 324.3 25.1 294.2 26.6 277.7C48.3 262.3 194.4 274 198 274.8C201.7 275.4 276.2 329.4 276.2 329.4Z" fill="url(#paint5_linear_1_2)"/>
        <path opacity="0.3" d="M625.2 63.4C625.2 63.4 639.1 81.6 677.5 80.7C670.2 89.1 665.2 89.4 665.2 89.4C665.2 89.4 548.7 82.6 532.1 74.6C550.3 66.6 625.2 63.4 625.2 63.4Z" fill="white"/>
        <path opacity="0.3" d="M625.2 323C625.2 323 639.1 304.8 677.5 305.7C670.2 297.3 665.2 297 665.2 297C665.2 297 548.7 303.8 532.1 311.8C550.3 319.7 625.2 323 625.2 323Z" fill="white"/>
        <path d="M95.7 354.4C95.7 354.4 35.6 353.5 19.7 285.7C15.8 282.1 11.2 278.8 9.70003 273.5C9.10003 271.6 8.70002 269.6 8.40002 267.6L29.4 286.1L34.4 302.5C34.4 302.5 45.8 330.3 76.9 335.7C94.7 339.6 100.8 346.6 119 348.2C130.4 349.2 168.5 351.7 195.3 353.4C184.9 354.1 175.7 354.9 170.4 355.5C152.8 357.6 95.7 354.4 95.7 354.4Z" fill="#0F0E0E"/>
        <path d="M8.10004 120.4C8.50004 117.8 8.90004 115.3 9.60004 112.9C11.2 107.5 15.7 104.3 19.6 100.7C19.6 100.6 19.7 100.5 19.7 100.4C35.7 32.9 95.6 32 95.6 32C95.6 32 152.7 28.8 170.2 30.9C177.2 31.8 191.3 32.8 205.6 33.7C179.4 35.4 131.8 38.4 118.8 39.6C100.6 41.2 94.5 48.2 76.7 52.1C45.7 57.5 34.2 85.3 34.2 85.3L29.2 101.7L8.10004 120.4Z" fill="#0F0E0E"/>
        <path d="M244.4 63.1L245.6 56.6C245.6 56.6 279.9 56.6 331.2 69.1C356.2 75.9 402.2 81.6 413.3 81.6C424.4 81.6 660.2 89.1 660.2 89.1" stroke="black" stroke-width="0.6988" stroke-miterlimit="10"/>
        <path d="M657.1 97C657.1 97 444.3 95 365.9 81.9" stroke="black" stroke-width="0.6988" stroke-miterlimit="10"/>
        <path d="M70.9 337.2C66.1 336.1 61.4 334.3 57.1 331.8C49.8 327.5 43.9 321 39.5 313.6C37.7 310.6 36.1 307.4 34.7 304.2C33.6 301.7 32.6 299 32.1 296.3C34.7 301 37.8 305.4 41.1 309.7C46.9 317.3 53.6 324.9 62.1 329.4C64.5 330.7 67 331.5 69.6 332.3C71.4 332.9 73.2 333.5 74.9 334.2C75.7 334.5 79.9 336.2 78.1 337.6C76.6 338.8 72.5 337.5 70.9 337.2Z" fill="#ACB3C3"/>
        <path d="M70.9 337.2C66.1 336.1 61.4 334.3 57.1 331.8C49.8 327.5 43.9 321 39.5 313.6C52.8 330.5 64.7 332.3 69.6 332.2C71.4 332.8 73.2 333.4 74.9 334.1C75.7 334.4 79.9 336.1 78.1 337.5C76.6 338.8 72.5 337.5 70.9 337.2Z" fill="#76808C"/>
        <path d="M70.9 49.7C66.1 50.8 61.4 52.6 57.1 55.1C49.8 59.4 43.9 65.9 39.5 73.3C37.7 76.3 36.1 79.5 34.7 82.7C33.6 85.2 32.6 87.9 32.1 90.6C34.7 85.9 37.8 81.5 41.1 77.2C46.9 69.6 53.6 62 62.1 57.5C64.5 56.2 67 55.4 69.6 54.6C71.4 54 73.2 53.4 74.9 52.7C75.7 52.4 79.9 50.7 78.1 49.3C76.6 48.1 72.5 49.3 70.9 49.7Z" fill="#ACB3C3"/>
        <path d="M70.9 49.7C66.1 50.8 61.4 52.6 57.1 55.1C49.8 59.4 43.9 65.9 39.5 73.3C52.8 56.4 64.7 54.6 69.6 54.7C71.4 54.1 73.2 53.5 74.9 52.8C75.7 52.5 79.9 50.8 78.1 49.4C76.6 48.1 72.5 49.3 70.9 49.7Z" fill="#76808C"/>
        <path d="M223.3 193.2C223.3 193.2 223.6 281 244.4 323.3C288 323 365.9 304.9 365.9 304.9C365.9 304.9 356.8 235.6 357 193.3C356.7 151 365.8 82 365.8 82C365.8 82 287.9 63.5 244.3 63.3C223.5 105.4 223.3 193.2 223.3 193.2Z" fill="url(#paint6_linear_1_2)"/>
        <path d="M244.4 323.2L245.7 329.9C245.7 329.9 279.8 329.8 331.2 317.3C356.2 310.5 402.2 304.8 413.3 304.8C424.4 304.8 662.1 297.3 662.1 297.3" stroke="black" stroke-width="0.6988" stroke-miterlimit="10"/>
        <path d="M657.1 289.4C657.1 289.4 444.3 291.4 365.9 304.5" stroke="black" stroke-width="0.6988" stroke-miterlimit="10"/>
        <path d="M817.6 307.7C818 307.2 818.4 306.8 818.8 306.3C819.2 305.8 819.6 305.3 820 304.8C820.4 304.3 820.8 303.8 821.2 303.3C821.6 302.8 822 302.2 822.3 301.7C822.7 301.2 823 300.6 823.4 300C823.8 299.4 824.1 298.9 824.5 298.3C824.8 297.7 825.2 297.1 825.5 296.5C825.8 295.9 826.2 295.3 826.5 294.7C826.8 294.1 827.1 293.5 827.5 292.8C827.8 292.2 828.1 291.5 828.4 290.9C828.7 290.3 829 289.6 829.3 289C829.6 288.3 829.9 287.7 830.2 287C830.5 286.3 830.8 285.7 831 285C831.3 284.3 831.5 283.6 831.8 282.9C832.1 282.2 832.3 281.5 832.6 280.8C832.9 280.1 833.1 279.4 833.4 278.7C833.6 278 833.9 277.3 834.1 276.6C834.3 275.9 834.6 275.2 834.8 274.4C835 273.7 835.3 272.9 835.5 272.2C835.7 271.5 835.9 270.7 836.2 270C836.4 269.3 836.6 268.5 836.8 267.8C837 267.1 837.2 266.3 837.4 265.6C837.6 264.9 837.8 264.1 838 263.4C838.2 262.7 838.4 261.9 838.6 261.2C838.8 260.5 839 259.7 839.1 258.9C839.3 258.1 839.4 257.4 839.6 256.6C839.8 255.8 839.9 255.1 840.1 254.3C840.3 253.6 840.4 252.8 840.6 252C840.8 251.3 840.9 250.5 841.1 249.8C841.2 249.1 841.4 248.3 841.5 247.6C841.6 246.9 841.8 246.1 841.9 245.4C842 244.7 842.2 243.9 842.3 243.2C842.4 242.5 842.6 241.7 842.7 241C842.8 240.3 842.9 239.5 843.1 238.8C843.2 238.1 843.3 237.4 843.4 236.6C843.5 235.9 843.6 235.2 843.7 234.5C843.8 233.8 843.9 233.1 844 232.4C844.1 231.7 844.2 231 844.3 230.3C844.4 229.6 844.5 228.9 844.6 228.2C844.7 227.5 844.8 226.8 844.9 226.2C845 225.5 845.1 224.9 845.1 224.2C845.2 223.5 845.2 222.9 845.3 222.2C845.4 221.6 845.4 220.9 845.5 220.3C845.6 219.7 845.6 219.1 845.7 218.4C845.8 217.8 845.8 217.2 845.9 216.6C846 216 846 215.4 846.1 214.8C846.2 214.2 846.2 213.6 846.3 213.1C846.3 212.5 846.4 212 846.4 211.4C846.4 210.9 846.5 210.3 846.5 209.8C846.5 209.3 846.6 208.8 846.6 208.2C846.6 207.7 846.7 207.2 846.7 206.7C846.7 206.2 846.8 205.7 846.8 205.3C846.8 204.8 846.9 204.4 846.9 203.9C846.9 203.5 847 203 847 202.6C847 202.2 847 201.8 847.1 201.4C847.1 201 847.1 200.6 847.2 200.2C847.2 199.8 847.2 199.5 847.3 199.1C847.3 198.8 847.3 198.4 847.3 198.1C847.5 194.2 847.4 190.2 847.2 186.3C847.2 185.9 847.2 185.5 847.1 185.2C847.1 184.8 847.1 184.4 847 184C847 183.6 846.9 183.1 846.9 182.7C846.9 182.3 846.8 181.8 846.8 181.4C846.8 180.9 846.7 180.5 846.7 180C846.7 179.5 846.6 179 846.6 178.5C846.6 178 846.5 177.5 846.5 177C846.5 176.5 846.4 175.9 846.4 175.4C846.4 174.8 846.3 174.3 846.3 173.7C846.3 173.1 846.2 172.6 846.2 172C846.1 171.4 846.1 170.8 846 170.2C845.9 169.6 845.9 169 845.8 168.4C845.7 167.8 845.7 167.2 845.6 166.5C845.5 165.9 845.5 165.2 845.4 164.6C845.3 164 845.3 163.3 845.2 162.7C845.1 162 845 161.4 845 160.7C844.9 160 844.8 159.4 844.8 158.7C844.7 158 844.6 157.3 844.5 156.6C844.4 155.9 844.3 155.2 844.2 154.5C844.1 153.8 844 153.1 843.9 152.4C843.8 151.7 843.7 151 843.6 150.3C843.5 149.6 843.4 148.9 843.3 148.1C843.2 147.4 843.1 146.6 843 145.9C842.9 145.2 842.8 144.4 842.6 143.7C842.5 143 842.3 142.2 842.2 141.5C842.1 140.8 841.9 140 841.8 139.3C841.7 138.5 841.5 137.8 841.4 137.1C841.3 136.3 841.1 135.6 841 134.8C840.8 134 840.7 133.3 840.5 132.5C840.3 131.7 840.2 131 840 130.2C839.8 129.4 839.7 128.7 839.5 127.9C839.3 127.1 839.1 126.4 839 125.6C838.8 124.8 838.6 124.1 838.4 123.3C838.2 122.5 838 121.8 837.8 121C837.6 120.3 837.4 119.5 837.2 118.8C837 118.1 836.8 117.3 836.6 116.6C836.4 115.9 836.2 115.1 835.9 114.4C835.7 113.7 835.5 112.9 835.2 112.2C835 111.5 834.7 110.7 834.5 110C834.3 109.3 834 108.6 833.8 107.8C833.6 107.1 833.3 106.4 833 105.7C832.7 105 832.5 104.3 832.2 103.6C831.9 102.9 831.7 102.2 831.4 101.5C831.1 100.8 830.8 100.1 830.6 99.5C830.3 98.8 830 98.2 829.7 97.5C829.4 96.8 829.1 96.2 828.8 95.5C828.5 94.9 828.2 94.2 827.9 93.6C827.6 93 827.3 92.3 826.9 91.7C826.6 91.1 826.2 90.5 825.9 89.9C825.6 89.3 825.2 88.7 824.9 88.1C824.6 87.5 824.2 86.9 823.8 86.4C823.4 85.8 823.1 85.3 822.7 84.7C822.3 84.2 822 83.6 821.6 83.1C821.2 82.6 820.8 82.1 820.4 81.5C820 81 819.6 80.5 819.2 80C818.8 79.5 818.4 79 818 78.6C818 78.6 817.9 78.4 817.8 78.4C795.6 73.6 751.2 62.6 742.1 78.4C741.6 96.6 751.6 192.9 751.6 192.9C751.2 196.9 741.6 289.7 742.1 307.5C751 323.5 795.4 312.5 817.6 307.7Z" fill="url(#paint7_linear_1_2)"/>
        <path d="M246 330.2C92.3 316 19.7 285.7 19.7 285.7C15.8 282.1 11.2 278.8 9.70002 273.5C7.90002 267.4 7.60003 260.4 6.80003 254.1C5.90003 247.4 5.10002 240.7 4.20002 234C2.60002 220.7 0.600022 207 0.500022 193.5V193.3C0.400022 179.7 2.50002 166.1 4.20002 152.6C5.00002 145.9 5.90003 139.2 6.80003 132.5C7.70003 126.2 7.90002 119.2 9.70002 113.1C11.3 107.7 15.8 104.5 19.7 100.8C19.7 100.7 19.8 100.6 19.8 100.5C23.1 99.2 95.9 70.2 246 56.3C245.5 61.6 245.1 66.8 244.7 72.1C243.7 84.8 242.8 97.5 241.9 110.3C241.8 111.6 241.7 112.9 241.6 114.3C239.6 142.7 237 171.1 237.3 199.6C237.8 242.9 242.1 286.8 246 330.2Z" fill="url(#paint8_linear_1_2)"/>
        <path d="M775.3 344C774.4 343.2 773.4 341.8 775.9 340.1C776.4 339.8 777.4 339.4 778.8 338.8C780.3 338.2 782.4 337.5 784.8 336.6C785.2 336.5 785.6 336.3 786 336.1C798.6 331.1 819.4 321.2 829 300.9C829.9 299 830.7 297.1 831.4 295C831.2 306.2 825.8 317.4 825.6 317.7C823.2 321.7 821.1 325 818.6 328C817.7 329 816.7 330 815.7 330.9C814.6 331.8 813.5 332.7 812.2 333.5C808.9 335.6 804.7 337.4 799 339.1C793 341 785.4 342.5 775.3 344Z" fill="#BA2537"/>
        <path d="M778.9 338.8C777.4 339.3 776.4 339.8 776 340.1C773.5 341.8 774.4 343.2 775.4 344C785.4 342.5 793.1 341 799.1 339.3C790.4 339.6 782.3 339.1 778.9 338.8Z" fill="#C92B36"/>
        <path d="M815.7 331.1C804.5 334.9 793 335.6 786 336.1C785.6 336.3 785.2 336.4 784.8 336.6C789 337 800.3 337.5 812.1 333.7C813.5 332.9 814.6 332 815.7 331.1Z" fill="#C92B36"/>
        <g opacity="0.5">
            <path d="M824.8 312.8C823.3 316.5 821 319.9 818.3 322.8C815.6 325.8 812.5 328.3 809.2 330.6C807.5 331.6 805.8 332.7 804 333.6C802.2 334.6 800.4 335.3 798.5 336.1C797.6 336.5 796.6 336.8 795.7 337.1L792.8 338C790.9 338.5 788.9 338.9 787 339.3C788.9 338.6 790.7 338 792.6 337.3L795.3 336.2C796.2 335.8 797.1 335.5 798 335L800.7 333.7C801.6 333.3 802.4 332.8 803.3 332.3C805.1 331.4 806.7 330.3 808.3 329.3C811.6 327.1 814.6 324.7 817.4 321.9C820.3 319.2 822.9 316.2 824.8 312.8Z" fill="white"/>
        </g>
        <path d="M818.6 328.1C827.3 314.7 828.8 305 829 300.9C829.9 299 830.7 297.1 831.4 295C831.2 306.2 825.8 317.4 825.6 317.7C823.2 321.8 821.2 325.2 818.6 328.1Z" fill="#7C0F29"/>
        <path d="M775.3 42.4C774.4 43.2 773.4 44.6 775.9 46.3C776.4 46.6 777.4 47 778.8 47.6C780.3 48.2 782.4 48.9 784.8 49.8C785.2 49.9 785.6 50.1 786 50.3C798.6 55.3 819.4 65.2 829 85.5C829.9 87.4 830.7 89.3 831.4 91.4C831.2 80.2 825.8 69 825.6 68.7C823.2 64.7 821.1 61.4 818.6 58.4C817.7 57.4 816.7 56.4 815.7 55.5C814.6 54.6 813.5 53.7 812.2 52.9C808.9 50.8 804.7 49 799 47.3C793 45.4 785.4 43.8 775.3 42.4Z" fill="#BA2537"/>
        <path d="M778.9 47.5C777.4 47 776.4 46.5 776 46.2C773.5 44.5 774.4 43.1 775.4 42.3C785.4 43.8 793.1 45.3 799.1 47C790.4 46.7 782.3 47.3 778.9 47.5Z" fill="#C92B36"/>
        <path d="M815.7 55.3C804.5 51.5 793 50.8 786 50.3C785.6 50.1 785.2 50 784.8 49.8C789 49.4 800.3 48.9 812.1 52.7C813.5 53.5 814.6 54.3 815.7 55.3Z" fill="#C92B36"/>
        <g opacity="0.5">
            <path d="M824.8 73.6C822.8 70.1 820.2 67.1 817.5 64.4C814.7 61.7 811.6 59.2 808.4 57C806.7 56 805.1 54.9 803.4 54C802.5 53.5 801.7 53 800.8 52.6L798.1 51.3C797.2 50.8 796.3 50.5 795.4 50.1L792.7 49C790.9 48.3 789 47.7 787.1 47C789 47.4 791 47.9 792.9 48.3L795.8 49.2C796.8 49.5 797.7 49.8 798.6 50.2C800.5 50.9 802.3 51.7 804.1 52.7C805.9 53.6 807.6 54.7 809.3 55.7C812.6 58 815.8 60.5 818.4 63.5C821 66.5 823.4 69.8 824.8 73.6Z" fill="white"/>
        </g>
        <path d="M818.6 58.2C827.3 71.6 828.8 81.3 829 85.4C829.9 87.3 830.7 89.2 831.4 91.3C831.2 80.1 825.8 68.9 825.6 68.6C823.2 64.5 821.2 61.1 818.6 58.2Z" fill="#7C0F29"/>
        <path d="M496.3 77.4C539.7 78 585.1 76.9 611.7 71.2C662 60.5 664.3 54.7 662.3 52C662.3 52 660 51.9 655.9 51.8C640.2 51.2 597 49.6 544.9 47.9C543.5 47.9 542 47.8 540.6 47.8C524.6 47.3 507.8 46.8 490.7 46.3C477.8 45.9 464.7 45.6 451.7 45.2C438.4 44.9 425.2 44.5 412.3 44.3C409.2 44.2 406.1 44.2 403.1 44.1C393.4 43.9 383.9 43.7 374.7 43.6C349.6 43.2 326.9 43 308.7 43.2C289.5 43.4 275.2 43.9 268.6 44.9C319.3 60.6 356.4 70.2 400.3 73.4C416 74.5 441.1 76 469.1 76.8L496.3 77.4Z" fill="#5C5E5D"/>
        <path d="M467.6 71.5C413 69.8 346.1 60.1 320.5 52.2C318.1 49.5 312.1 43.6 308.6 40.2C344.3 39.9 397.4 40.9 451.6 42.3C464.6 42.6 477.7 43 490.6 43.4C565.4 45.5 634.9 48.1 655.8 48.9C656 50.3 655.5 53.1 650.2 55.1C642.9 57.9 597 72.6 501.3 71.8C498.9 71.8 496.5 71.7 494.1 71.7C485.8 71.8 476.9 71.8 467.6 71.5Z" fill="#474747"/>
        <path d="M467.6 74.5C413 72.8 346.1 63.1 320.5 55.2C318.1 52.5 312.1 46.6 308.6 43.2C344.3 42.9 397.4 43.9 451.6 45.3C464.6 45.6 477.7 46 490.6 46.4C565.4 48.5 634.9 51.1 655.8 51.9C656 53.3 655.5 56.1 650.2 58.1C642.9 60.9 597 75.6 501.3 74.8C498.9 74.8 496.5 74.7 494.1 74.7C485.8 74.9 476.9 74.8 467.6 74.5Z" fill="#101010"/>
        <path d="M574 46C575.2 46 576.2 46.9 576.2 48.1L580.4 48C580.3 44.5 577.4 41.8 573.9 41.9L546.6 42.6C543.1 42.7 540.4 45.6 540.4 49.1L544.6 49C544.6 47.8 545.5 46.8 546.7 46.8L574 46Z" fill="#A1A39E"/>
        <path d="M576.2 48.1L580.4 48C580.3 44.5 577.4 41.8 573.9 41.9L570.4 42L570.5 46.2L574 46.1C575.1 46 576.2 47 576.2 48.1Z" fill="#C4C4C4"/>
        <path d="M574 46C575.2 46 576.2 46.9 576.2 48.1L580.4 48C580.3 44.5 577.4 41.8 573.9 41.9L546.6 42.6C543.1 42.7 540.4 45.6 540.4 49.1L544.6 49C544.6 47.8 545.5 46.8 546.7 46.8L574 46Z" stroke="black" stroke-width="0.6931" stroke-miterlimit="10"/>
        <path d="M406.4 45C407.6 45 408.6 45.9 408.6 47.1L412.8 47C412.7 43.5 409.8 40.8 406.3 40.9L379 41.6C375.5 41.7 372.8 44.6 372.8 48.1L377 48C377 46.8 377.9 45.8 379.1 45.8L406.4 45Z" fill="#A1A39E"/>
        <path d="M408.7 47.1L412.9 47C412.8 43.5 409.9 40.8 406.4 40.9L402.9 41L403 45.2L406.5 45.1C407.6 44.9 408.6 45.9 408.7 47.1Z" fill="#C4C4C4"/>
        <path d="M406.4 45C407.6 45 408.6 45.9 408.6 47.1L412.8 47C412.7 43.5 409.8 40.8 406.3 40.9L379 41.6C375.5 41.7 372.8 44.6 372.8 48.1L377 48C377 46.8 377.9 45.8 379.1 45.8L406.4 45Z" stroke="black" stroke-width="0.6931" stroke-miterlimit="10"/>
        <path d="M400.1 313C356.2 316.2 319.1 325.8 268.4 341.5C275.1 342.5 289.3 343 308.5 343.2C402.5 343.9 616.1 336 655.7 334.5C659.9 334.3 662.1 334.3 662.1 334.3C664.1 331.7 661.9 325.9 611.6 315.2C561.3 304.4 443.9 309.7 400.1 313Z" fill="#474747"/>
        <path d="M320.5 331.2C318.1 333.9 312.1 339.8 308.6 343.2C402.6 343.9 616.2 336 655.8 334.5C656 333.1 655.5 330.3 650.2 328.3C642.7 325.4 594.7 310.1 494.1 311.7C436.8 310.1 350.5 321.9 320.5 331.2Z" fill="#474747"/>
        <path d="M574 340.3C575.2 340.3 576.2 339.4 576.2 338.2L580.4 338.3C580.3 341.8 577.4 344.5 573.9 344.4L546.6 343.7C543.1 343.6 540.4 340.7 540.4 337.2L544.6 337.3C544.6 338.5 545.5 339.5 546.7 339.5L574 340.3Z" fill="#474747"/>
        <path d="M576.2 338.2L580.4 338.3C580.3 341.8 577.4 344.5 573.9 344.4L570.4 344.3L570.5 340.1L574 340.2C575.1 340.3 576.2 339.4 576.2 338.2Z" fill="#474747"/>
        <path d="M574 340.3C575.2 340.3 576.2 339.4 576.2 338.2L580.4 338.3C580.3 341.8 577.4 344.5 573.9 344.4L546.6 343.7C543.1 343.6 540.4 340.7 540.4 337.2L544.6 337.3C544.6 338.5 545.5 339.5 546.7 339.5L574 340.3Z" fill="#474747"/>
        <path d="M406.4 341.4C407.6 341.4 408.6 340.5 408.6 339.3L412.8 339.4C412.7 342.9 409.8 345.6 406.3 345.5L379 344.8C375.5 344.7 372.8 341.8 372.8 338.3L377 338.4C377 339.6 377.9 340.6 379.1 340.6L406.4 341.4Z" fill="#474747"/>
        <path d="M408.7 339.3L412.9 339.4C412.8 342.9 409.9 345.6 406.4 345.5L402.9 345.4L403 341.2L406.5 341.3C407.6 341.4 408.6 340.4 408.7 339.3Z" fill="#474747"/>
        <path d="M406.4 341.4C407.6 341.4 408.6 340.5 408.6 339.3L412.8 339.4C412.7 342.9 409.8 345.6 406.3 345.5L379 344.8C375.5 344.7 372.8 341.8 372.8 338.3L377 338.4C377 339.6 377.9 340.6 379.1 340.6L406.4 341.4Z" fill="#474747"/>
        <path d="M400.1 309.9C356.2 313.1 319.1 322.7 268.4 338.4C275.1 339.4 289.3 339.9 308.5 340.1C402.5 340.8 616.1 332.9 655.7 331.4C659.9 331.2 662.1 331.2 662.1 331.2C664.1 328.6 661.9 322.8 611.6 312.1C561.3 301.4 443.9 306.7 400.1 309.9Z" fill="#5C5E5D"/>
        <path d="M320.5 328.1C318.1 330.8 312.1 336.7 308.6 340.1C402.6 340.8 616.2 332.9 655.8 331.4C656 330 655.5 327.2 650.2 325.2C642.7 322.3 594.7 307 494.1 308.6C436.8 307.1 350.5 318.9 320.5 328.1Z" fill="#101010"/>
        <path d="M574 337.3C575.2 337.3 576.2 336.4 576.2 335.2L580.4 335.3C580.3 338.8 577.4 341.5 573.9 341.4L546.6 340.7C543.1 340.6 540.4 337.7 540.4 334.2L544.6 334.3C544.6 335.5 545.5 336.5 546.7 336.5L574 337.3Z" fill="#A1A39E"/>
        <path d="M576.2 335.2L580.4 335.3C580.3 338.8 577.4 341.5 573.9 341.4L570.4 341.3L570.5 337.1L574 337.2C575.1 337.3 576.2 336.3 576.2 335.2Z" fill="#C4C4C4"/>
        <path d="M574 337.3C575.2 337.3 576.2 336.4 576.2 335.2L580.4 335.3C580.3 338.8 577.4 341.5 573.9 341.4L546.6 340.7C543.1 340.6 540.4 337.7 540.4 334.2L544.6 334.3C544.6 335.5 545.5 336.5 546.7 336.5L574 337.3Z" stroke="black" stroke-width="0.6931" stroke-miterlimit="10"/>
        <path d="M406.4 338.3C407.6 338.3 408.6 337.4 408.6 336.2L412.8 336.3C412.7 339.8 409.8 342.5 406.3 342.4L379 341.7C375.5 341.6 372.8 338.7 372.8 335.2L377 335.3C377 336.5 377.9 337.5 379.1 337.5L406.4 338.3Z" fill="#A1A39E"/>
        <path d="M408.7 336.2L412.9 336.3C412.8 339.8 409.9 342.5 406.4 342.4L402.9 342.3L403 338.1L406.5 338.2C407.6 338.4 408.6 337.4 408.7 336.2Z" fill="#C4C4C4"/>
        <path d="M406.4 338.3C407.6 338.3 408.6 337.4 408.6 336.2L412.8 336.3C412.7 339.8 409.8 342.5 406.3 342.4L379 341.7C375.5 341.6 372.8 338.7 372.8 335.2L377 335.3C377 336.5 377.9 337.5 379.1 337.5L406.4 338.3Z" stroke="black" stroke-width="0.6931" stroke-miterlimit="10"/>
        <path d="M19.7 100.4L17.4 123.6C16.6 131.3 15.8 139 15.2 146.8C13.8 162.3 12.8 177.7 12.7 193.3C12.5 208.8 13.5 224.3 14.9 239.8C15.6 247.5 16.4 255.2 17.2 263L19.7 286.1L16.8 263C15.9 255.3 15.1 247.6 14.3 239.8C12.9 224.3 11.8 208.8 11.9 193.3C12.1 177.8 13.2 162.3 14.6 146.8C16.1 131.2 18 115.8 19.7 100.4Z" fill="#101010"/>
        <path d="M291.1 344.9C291 343.5 289.6 342.4 287.8 341.6C284.4 340 279.5 339.3 279.5 339.3L290.4 339.1L294.7 339L305.8 338.7L306.5 344.2L321.7 346.8C321.7 346.8 321.9 347.2 322.3 347.9C322.3 347.9 322.4 348 322.4 348.1C323.1 349.3 324.1 351.4 325.4 354C325.5 354.1 325.5 354.3 325.6 354.4C325.7 354.7 325.8 354.9 326 355.2C326.1 355.4 326.2 355.6 326.2 355.7C326.3 355.9 326.4 356.1 326.5 356.4C326.6 356.6 326.7 356.8 326.8 357C327.2 357.8 327.6 358.7 328 359.6C328.2 360 328.3 360.4 328.5 360.8C329 362 329.5 363.3 330.1 364.6C330.2 364.8 330.3 365.1 330.4 365.3C330.9 366.4 331.3 367.6 331.7 368.8C331.9 369.3 332 369.7 332.2 370.2C332.9 372.2 333.5 374.3 334 376.2C334 376.4 334.1 376.5 334.1 376.6C334.2 377.1 334.4 377.7 334.5 378.2C334.5 378.4 334.6 378.5 334.6 378.7C334.6 378.9 334.7 379 334.7 379.2C334.9 380.1 335 381 335.1 381.8C335.1 382 335.1 382.2 335.1 382.4C301.7 386.2 291.4 348.9 291.1 344.9Z" fill="black"/>
        <path opacity="0.7" d="M296.9 344.3C294.4 344.5 292.3 344.7 291.1 344.8C291.5 348.8 301.7 386.1 334.9 382.3C334.8 381.1 334.6 379.9 334.4 378.6C331.9 365.3 321.7 346.7 321.7 346.7L306.5 344.1C303.2 344 299.8 344.2 296.9 344.3Z" fill="url(#paint9_linear_1_2)"/>
        <path d="M331 382C329.9 379.6 328.8 377.1 327.7 374.6C326.6 372.1 325.6 369.6 324.6 367.2C323.6 364.7 322.6 362.2 321.7 359.7C320.8 357.2 319.9 354.6 319.1 352.1L322.2 359.5L325.2 367L328.1 374.5C329.2 377 330.2 379.5 331 382Z" fill="black"/>
        <path d="M321.7 346.8C321.5 356.4 334.9 382.4 334.9 382.4C333.9 369.2 321.7 346.8 321.7 346.8Z" fill="#02070D"/>
        <path d="M291.1 344.9C291 343.5 289.6 342.4 287.8 341.6L290.4 339.1L294.7 339C295.3 340.4 296 342.3 297 344.4C299.9 350.8 304.6 359.9 310.5 367.2C316.4 374.5 324 377.2 329.6 378.2C330.9 378.4 332.1 378.6 333.1 378.6C333.6 378.6 334.1 378.7 334.5 378.7C334.5 378.9 334.6 379 334.6 379.2C334.8 380.1 334.9 381 335 381.8C335 382 335 382.2 335 382.4C301.7 386.2 291.4 348.9 291.1 344.9Z" fill="#333333"/>
        <path d="M291.1 38.3C291 39.7 289.6 40.8 287.8 41.6C284.4 43.2 279.5 43.9 279.5 43.9L290.4 44.1L294.7 44.2L305.8 44.5L306.5 39L321.7 36.4C321.7 36.4 321.9 36 322.3 35.3C322.3 35.3 322.4 35.2 322.4 35.1C323.1 33.9 324.1 31.8 325.4 29.2C325.5 29.1 325.5 28.9 325.6 28.8C325.7 28.5 325.8 28.3 326 28C326.1 27.8 326.2 27.6 326.2 27.5C326.3 27.3 326.4 27.1 326.5 26.8C326.6 26.6 326.7 26.4 326.8 26.2C327.2 25.4 327.6 24.5 328 23.6C328.2 23.2 328.3 22.8 328.5 22.4C329 21.2 329.5 19.9 330.1 18.6C330.2 18.4 330.3 18.1 330.4 17.9C330.9 16.8 331.3 15.6 331.7 14.4C331.9 13.9 332 13.5 332.2 13C332.9 11 333.5 8.89999 334 6.99999C334 6.79999 334.1 6.7 334.1 6.6C334.2 6.1 334.4 5.49999 334.5 4.99999C334.5 4.79999 334.6 4.69999 334.6 4.49999C334.6 4.29999 334.7 4.19999 334.7 3.99999C334.9 3.09999 335 2.19999 335.1 1.39999C335.1 1.19999 335.1 0.999982 335.1 0.799982C301.7 -2.90002 291.4 34.3 291.1 38.3Z" fill="black"/>
        <path opacity="0.7" d="M296.9 38.9C294.4 38.7 292.3 38.5 291.1 38.4C291.5 34.4 301.7 -2.90001 334.9 0.89999C334.8 2.09999 334.6 3.3 334.4 4.6C331.9 17.9 321.7 36.5 321.7 36.5L306.5 39.1C303.2 39.2 299.8 39.1 296.9 38.9Z" fill="url(#paint10_linear_1_2)"/>
        <path d="M331 1.20001C330.1 3.70001 329.2 6.29999 328.2 8.79999L325.3 16.3L322.3 23.8L319.2 31.2C319.9 28.6 320.8 26.1 321.8 23.6C322.7 21.1 323.7 18.6 324.7 16.1C325.7 13.6 326.7 11.1 327.8 8.70001C328.8 6.10001 329.9 3.70001 331 1.20001Z" fill="black"/>
        <path d="M321.7 36.4C321.5 26.8 334.9 0.799988 334.9 0.799988C333.9 14.1 321.7 36.4 321.7 36.4Z" fill="#02070D"/>
        <path d="M291.1 38.3C291 39.7 289.6 40.8 287.8 41.6L290.4 44.1L294.7 44.2C295.3 42.8 296 40.9 297 38.8C299.9 32.4 304.6 23.3 310.5 16C316.4 8.69999 324 5.99999 329.6 4.99999C330.9 4.79999 332.1 4.6 333.1 4.6C333.6 4.6 334.1 4.49999 334.5 4.49999C334.5 4.29999 334.6 4.19999 334.6 3.99999C334.8 3.09999 334.9 2.19999 335 1.39999C335 1.19999 335 0.999982 335 0.799982C301.7 -2.90002 291.4 34.3 291.1 38.3Z" fill="#333333"/>
        <path d="M657.6 193.2C657.6 193.2 656.5 270.3 656.3 280.4C656 290.6 655.2 299 677.5 305.6C699.8 312.2 737.1 320 749.1 303.4C761.1 286.8 773.2 232.2 772.9 193.1C773.2 154 761.1 99.4 749.1 82.8C737.1 66.2 699.8 74 677.5 80.6C655.2 87.2 656 95.7 656.3 105.8C656.5 116.1 657.6 193.2 657.6 193.2Z" fill="black"/>
        <g opacity="0.5">
            <path d="M742.7 309.3C743.8 310.7 745.4 311.7 747 312.5C748.6 313.3 750.3 313.9 752.1 314.3C755.6 315.1 759.2 315.4 762.8 315.4C766.4 315.3 770 315.1 773.5 314.7C777.1 314.4 780.7 313.9 784.2 313.5C791.3 312.6 798.5 311.5 805.5 310.3C809 309.7 812.6 309 816.1 308.2C819.6 307.4 823.1 306.7 826.5 305.3C823.2 306.7 819.7 307.6 816.2 308.5C812.7 309.3 809.2 310.1 805.6 310.8C798.5 312.1 791.4 313.2 784.2 314.2C780.6 314.6 777 315 773.4 315.4C769.8 315.7 766.2 316 762.6 316C759 316 755.4 315.6 751.9 314.7C750.1 314.3 748.4 313.6 746.8 312.8C745.3 311.8 743.7 310.8 742.7 309.3Z" fill="white"/>
            <path d="M742.7 77C743.8 75.5 745.3 74.5 746.9 73.6C748.5 72.8 750.2 72.1 752 71.7C755.5 70.8 759.1 70.4 762.7 70.4C766.3 70.4 769.9 70.7 773.5 71C777.1 71.3 780.7 71.7 784.3 72.2C791.4 73.1 798.6 74.2 805.7 75.6C809.2 76.3 812.8 77 816.3 77.9C819.8 78.8 823.3 79.7 826.6 81.1C823.2 79.8 819.7 79 816.2 78.2C812.7 77.4 809.1 76.8 805.6 76.1C798.5 74.9 791.4 73.8 784.3 72.9C780.7 72.4 777.2 72 773.6 71.7C770 71.3 766.4 71.1 762.9 71C759.3 71 755.7 71.2 752.2 72.1C750.4 72.5 748.8 73.1 747.1 73.9C745.3 74.6 743.8 75.6 742.7 77Z" fill="white"/>
        </g>
        <path d="M242.7 81.9C241.5 90.6 240.7 99.4 240 108.2C239.7 112.6 239.3 117 239 121.4L238.6 128L238.3 134.6C237.4 152.2 237 169.8 237 187.5C237 191.9 237.1 196.3 237.1 200.7C237.1 205.1 237.2 209.5 237.4 213.9L237.8 227.1C238 231.5 238.2 235.9 238.4 240.3C239.3 257.9 240.8 275.5 242.4 293.1L241 280C240.6 275.6 240 271.2 239.7 266.8C239 258 238.3 249.2 237.9 240.4C237.7 236 237.4 231.6 237.2 227.2L236.7 214C236.5 209.6 236.5 205.2 236.4 200.8C236.4 196.4 236.2 192 236.2 187.6C236.2 170 236.7 152.3 237.7 134.7L238.1 128.1L238.6 121.5C238.9 117.1 239.3 112.7 239.7 108.3C240.5 99.4 241.4 90.7 242.7 81.9Z" fill="white"/>
        <path d="M467.6 74.5L451.5 45.2C464.5 45.5 477.6 45.9 490.5 46.3L501.3 74.7C498.9 74.7 496.5 74.6 494.1 74.6C485.8 74.9 476.9 74.8 467.6 74.5Z" fill="#494949"/>
        <path d="M451.5 337.9L467.6 308.6C473.9 308.4 480 308.3 485.9 308.4C486.2 308.4 486.4 308.4 486.7 308.4C489.2 308.4 491.7 308.5 494.1 308.5C496.5 308.5 499 308.4 501.3 308.4L490.5 336.8C484.4 337 478.3 337.1 472.2 337.3C471.9 337.3 471.7 337.3 471.4 337.3C464.8 337.6 458.2 337.7 451.5 337.9Z" fill="#494949"/>
        <path d="M465.1 351.7H464.3L471.5 337.3L486 308.3C486.3 308.3 486.5 308.3 486.8 308.3L472.3 337.3L465.1 351.7Z" fill="black"/>
        <path d="M485.9 74.9L471.4 45.9L465.8 34.6H466.6L472.3 45.9L486.8 74.9C486.5 74.9 486.2 74.9 485.9 74.9Z" fill="black"/>
        <path opacity="0.3" d="M263.4 102.6C263.4 102.6 295.9 170.9 333.3 206.7Z" fill="white"/>
        <path opacity="0.2" d="M256.8 181.3C256.8 181.3 289.3 249.6 326.7 285.4Z" fill="white"/>
        <g opacity="0.3">
            <path d="M381.2 130.7C383.9 130.5 386.6 130.3 389.2 130L397.2 129.3C402.6 128.9 407.9 128.4 413.3 128L421.3 127.4L429.4 126.9L437.5 126.5L445.6 126.2C467.1 125.3 488.6 125.1 510.1 125.6C531.6 126.3 553.1 127.7 574.5 130.1C585.1 131.6 595.8 132.8 606.4 134.9C617 136.6 627.4 139.3 637.9 141.7C627.4 139.5 616.9 136.9 606.3 135.4C595.7 133.4 585 132.3 574.4 130.9C553 128.7 531.6 127.3 510.1 126.7C488.6 126.1 467.1 126.3 445.7 127C424.1 127.6 402.7 129.1 381.2 130.7Z" fill="white"/>
        </g>
        <path opacity="0.3" d="M241.6 114C214.7 112.7 164.4 110.2 148.5 108.6C184.1 105.2 230.4 80.1 244.7 71.9C243.7 84.6 242.8 97.3 241.9 110.1C241.8 111.4 241.7 112.7 241.6 114Z" fill="url(#paint11_linear_1_2)"/>
        <path opacity="0.3" d="M241.6 271.2C214.7 272.5 164.4 275 148.5 276.6C184.1 280 230.4 305.1 244.7 313.3C243.7 300.6 242.8 287.9 241.9 275.1C241.8 273.8 241.7 272.5 241.6 271.2Z" fill="url(#paint12_linear_1_2)"/>
    </g>
    <defs>
        <linearGradient id="paint0_linear_1_2" x1="710.913" y1="51.3868" x2="710.913" y2="90.597" gradientUnits="userSpaceOnUse">
            <stop offset="2.66389e-07" stop-color="white" stop-opacity="0.5"/>
            <stop offset="0.8376" stop-color="white" stop-opacity="0"/>
        </linearGradient>
        <linearGradient id="paint1_linear_1_2" x1="519.458" y1="213.254" x2="519.458" y2="304.668" gradientUnits="userSpaceOnUse">
            <stop offset="5.43435e-07" stop-color="#1E1E1E" stop-opacity="0"/>
            <stop offset="1"/>
        </linearGradient>
        <linearGradient id="paint2_linear_1_2" x1="710.913" y1="334.738" x2="710.913" y2="295.528" gradientUnits="userSpaceOnUse">
            <stop offset="2.66389e-07" stop-color="white" stop-opacity="0.5"/>
            <stop offset="0.8376" stop-color="white" stop-opacity="0"/>
        </linearGradient>
        <linearGradient id="paint3_linear_1_2" x1="151.374" y1="44.73" x2="151.374" y2="119.103" gradientUnits="userSpaceOnUse">
            <stop stop-color="white"/>
            <stop offset="0.376" stop-color="white" stop-opacity="0"/>
        </linearGradient>
        <linearGradient id="paint4_linear_1_2" x1="378.869" y1="137.181" x2="656.415" y2="72.2001" gradientUnits="userSpaceOnUse">
            <stop offset="2.66389e-07" stop-color="white" stop-opacity="0.5"/>
            <stop offset="0.8376" stop-color="white" stop-opacity="0"/>
        </linearGradient>
        <linearGradient id="paint5_linear_1_2" x1="151.374" y1="344.057" x2="151.374" y2="269.684" gradientUnits="userSpaceOnUse">
            <stop stop-color="white"/>
            <stop offset="0.376" stop-color="white" stop-opacity="0"/>
        </linearGradient>
        <linearGradient id="paint6_linear_1_2" x1="201.802" y1="193.163" x2="461.963" y2="193.163" gradientUnits="userSpaceOnUse">
            <stop stop-color="#0C0C0C"/>
            <stop offset="0.2299" stop-color="#222222"/>
            <stop offset="0.7228" stop-color="#4F4F4F"/>
        </linearGradient>
        <linearGradient id="paint7_linear_1_2" x1="887.284" y1="192.262" x2="664.823" y2="193.902" gradientUnits="userSpaceOnUse">
            <stop offset="0.3858" stop-color="#151515"/>
            <stop offset="0.5666" stop-color="#202020"/>
            <stop offset="0.8846" stop-color="#3E3E3E"/>
            <stop offset="1" stop-color="#4A4A4A"/>
        </linearGradient>
        <linearGradient id="paint8_linear_1_2" x1="336.884" y1="193.166" x2="-28.3872" y2="193.166" gradientUnits="userSpaceOnUse">
            <stop offset="0.4435" stop-color="#151515"/>
            <stop offset="0.6535" stop-color="#181818"/>
            <stop offset="0.7788" stop-color="#202020"/>
            <stop offset="0.8818" stop-color="#2E2E2E"/>
            <stop offset="0.9722" stop-color="#424242"/>
            <stop offset="1" stop-color="#4A4A4A"/>
        </linearGradient>
        <linearGradient id="paint9_linear_1_2" x1="312.967" y1="344.118" x2="312.967" y2="382.638" gradientUnits="userSpaceOnUse">
            <stop offset="0.1869" stop-color="#0C0C0C"/>
            <stop offset="0.4223" stop-color="#484848"/>
            <stop offset="0.6145" stop-color="#757575"/>
        </linearGradient>
        <linearGradient id="paint10_linear_1_2" x1="312.967" y1="39.1162" x2="312.967" y2="0.59619" gradientUnits="userSpaceOnUse">
            <stop offset="0.1869" stop-color="#0C0C0C"/>
            <stop offset="0.4223" stop-color="#484848"/>
            <stop offset="0.6145" stop-color="#757575"/>
        </linearGradient>
        <linearGradient id="paint11_linear_1_2" x1="196.57" y1="71.9179" x2="196.57" y2="114.041" gradientUnits="userSpaceOnUse">
            <stop offset="2.66389e-07" stop-color="white" stop-opacity="0.5"/>
            <stop offset="0.8376" stop-color="white" stop-opacity="0"/>
        </linearGradient>
        <linearGradient id="paint12_linear_1_2" x1="196.57" y1="313.289" x2="196.57" y2="271.166" gradientUnits="userSpaceOnUse">
            <stop offset="2.66389e-07" stop-color="white" stop-opacity="0.5"/>
            <stop offset="0.8376" stop-color="white" stop-opacity="0"/>
        </linearGradient>
        <clipPath id="clip0_1_2">
            <rect width="852" height="383" fill="white"/>
        </clipPath>
    </defs>
</svg>
